<svg xmlns="http://www.w3.org/2000/svg" viewBox="0 0 64 64" width="64" height="64">
  <defs>
    <linearGradient id="g" x1="0" y1="0" x2="1" y2="1">
      <stop offset="0" stop-color="#6d5efc"/>
      <stop offset="1" stop-color="#9b5cff"/>
    </linearGradient>
  </defs>

  <!-- Rounded gradient background -->
  <rect x="2" y="2" width="60" height="60" rx="15" fill="url(#g)"/>

  <!-- Document sheet -->
  <path d="M22 14h13l9 9v27a3 3 0 0 1-3 3H22a3 3 0 0 1-3-3V17a3 3 0 0 1 3-3z"
        fill="#ffffff"/>
  <!-- Folded corner -->
  <path d="M35 14l9 9h-9z" fill="#d9d2ff"/>

  <!-- Text lines on the sheet -->
  <rect x="24" y="29" width="16" height="2.6" rx="1.3" fill="#9b5cff"/>
  <rect x="24" y="35" width="16" height="2.6" rx="1.3" fill="#b9b1ff"/>
  <rect x="24" y="41" width="11" height="2.6" rx="1.3" fill="#b9b1ff"/>

  <!-- AI spark -->
  <path d="M45 33l1.3 3.2L49.5 37.5l-3.2 1.3L45 42l-1.3-3.2L40.5 37.5l3.2-1.3z"
        fill="#ffd23f"/>
</svg>
